HIERARCHY
ROOT Hips
{
	OFFSET	0.00	0.00	0.00
	CHANNELS 6 Xposition Yposition Zposition Zrotation Xrotation Yrotation
	JOINT LeftUpLeg
	{
		OFFSET	 0.126116	-0.014019	-0.065224
		CHANNELS 3 Zrotation Xrotation Yrotation
		JOINT LeftLeg
		{
			OFFSET	 0.000000	 0.000000	 0.569914
			CHANNELS 3 Zrotation Xrotation Yrotation
			JOINT LeftFoot
			{
				OFFSET	 0.000000	 0.000000	 0.544423
				CHANNELS 3 Zrotation Xrotation Yrotation
				JOINT LeftToeBase
				{
					OFFSET	 0.000000	 0.000000	 0.207117
					CHANNELS 3 Zrotation Xrotation Yrotation
					End Site
					{
						OFFSET	 0.000000	 0.000000	 0.207117
					}
				}
			}
		}
	}
	JOINT RightUpLeg
	{
		OFFSET	-0.124023	-0.008373	-0.065224
		CHANNELS 3 Zrotation Xrotation Yrotation
		JOINT RightLeg
		{
			OFFSET	 0.000000	 0.000000	 0.570047
			CHANNELS 3 Zrotation Xrotation Yrotation
			JOINT RightFoot
			{
				OFFSET	 0.000000	 0.000000	 0.544354
				CHANNELS 3 Zrotation Xrotation Yrotation
				JOINT RightToeBase
				{
					OFFSET	 0.000000	 0.000000	 0.207540
					CHANNELS 3 Zrotation Xrotation Yrotation
					End Site
					{
						OFFSET	 0.000000	 0.000000	 0.207540
					}
				}
			}
		}
	}
	JOINT Spine
	{
		OFFSET	 0.000184	-0.007763	 0.117403
		CHANNELS 3 Zrotation Xrotation Yrotation
		JOINT Spine1
		{
			OFFSET	 0.000000	 0.000000	 0.137269
			CHANNELS 3 Zrotation Xrotation Yrotation
			JOINT Spine2
			{
				OFFSET	 0.000000	 0.000000	 0.156879
				CHANNELS 3 Zrotation Xrotation Yrotation
				JOINT LeftShoulder
				{
					OFFSET	 0.080501	-0.002496	 0.160144
					CHANNELS 3 Zrotation Xrotation Yrotation
					JOINT LeftArm
					{
						OFFSET	 0.000000	 0.000000	 0.164363
						CHANNELS 3 Zrotation Xrotation Yrotation
						JOINT LeftForeArm
						{
							OFFSET	 0.000000	 0.000000	 0.364576
							CHANNELS 3 Zrotation Xrotation Yrotation
							JOINT LeftHand
							{
								OFFSET	 0.000000	 0.000000	 0.360812
								CHANNELS 3 Zrotation Xrotation Yrotation
								JOINT LeftHandIndex1
								{
									OFFSET	 0.000000	 0.000000	 0.086006
									CHANNELS 3 Zrotation Xrotation Yrotation
									JOINT LeftHandIndex2
									{
										OFFSET	 0.000000	 0.000000	 0.047236
										CHANNELS 3 Zrotation Xrotation Yrotation
										JOINT LeftHandIndex3
										{
											OFFSET	-0.004284	-0.000551	 0.038166
											CHANNELS 3 Zrotation Xrotation Yrotation
											End Site
											{
												OFFSET	-0.004284	-0.000551	 0.038166
											}
										}
									}
								}
							}
						}
					}
				}
				JOINT Neck
				{
					OFFSET	 0.000000	 0.000000	 0.176489
					CHANNELS 3 Zrotation Xrotation Yrotation
					JOINT Head
					{
						OFFSET	 0.000000	-0.001747	 0.077940
						CHANNELS 3 Zrotation Xrotation Yrotation
						End Site
						{
							OFFSET	 0.000000	-0.001747	 0.077940
						}
					}
				}
				JOINT RightShoulder
				{
					OFFSET	-0.080363	 0.000306	 0.159706
					CHANNELS 3 Zrotation Xrotation Yrotation
					JOINT RightArm
					{
						OFFSET	 0.000000	 0.000000	 0.164196
						CHANNELS 3 Zrotation Xrotation Yrotation
						JOINT RightForeArm
						{
							OFFSET	 0.000000	 0.000000	 0.365611
							CHANNELS 3 Zrotation Xrotation Yrotation
							JOINT RightHand
							{
								OFFSET	 0.000000	 0.000000	 0.360648
								CHANNELS 3 Zrotation Xrotation Yrotation
								JOINT RightHandIndex1
								{
									OFFSET	 0.000000	 0.000000	 0.069977
									CHANNELS 3 Zrotation Xrotation Yrotation
									JOINT RightHandIndex2
									{
										OFFSET	 0.000000	 0.000000	 0.052305
										CHANNELS 3 Zrotation Xrotation Yrotation
										JOINT RightHandIndex3
										{
											OFFSET	 0.009002	-0.000782	 0.042196
											CHANNELS 3 Zrotation Xrotation Yrotation
											End Site
											{
												OFFSET	 0.009002	-0.000782	 0.042196
											}
										}
									}
								}
							}
						}
					}
				}
			}
		}
	}
}
MOTION
Frames:    8
Frame Time: 0.03333334
 0.000295	 0.019725	 1.271123	-0.002412	 0.004704	 0.174400	-1.229266	-1.759261	 177.824400	 1.472190	-12.043330	-0.703238	-7.099926	 71.203570	 0.968895	-2.385833	 28.452760	 0.000004	 1.064291	-1.826732	-178.109700	-1.463323	-11.672420	 0.668440	 6.765245	 70.863780	-0.809153	 2.384658	 28.388730	 0.000004	-5.479230	 2.561603	 0.276030	-2.131672	 4.223380	-0.759969	 6.450401	-5.220991	 1.435518	-91.776170	 78.527490	 180.000000	 61.643780	 41.324510	-59.015020	-8.658918	 0.662613	-1.986177	-30.598700	-11.603710	-4.507089	-2.635965	 4.993658	 6.788941	-5.165319	 0.784187	 3.516649	-5.225038	 0.466231	 0.424329	-0.000002	-3.783157	-0.089647	 6.250418	 4.304788	-0.235161	 89.782100	 78.203900	 180.000000	-64.103210	 41.876240	 57.454930	 7.990316	 3.427758	 8.145248	 30.788220	-12.501180	 9.081440	 6.112037	 4.509576	-0.364401	 4.968462	 1.518543	-9.347576	 5.168945	 0.703820	 2.021906
 0.000282	 0.019736	 1.271180	-0.001353	 0.006389	 0.168933	-0.881793	-1.802714	 177.806000	 1.471544	-12.094390	-0.706311	-7.114497	 71.212490	 0.986363	-2.385833	 28.452760	 0.000004	 0.717885	-1.880986	-178.084200	-1.462387	-11.750680	 0.673050	 6.783196	 70.887830	-0.826832	 2.384658	 28.388730	 0.000004	-6.892806	 2.381064	 0.242676	-2.023341	 4.848477	-0.675855	 6.117445	-6.047560	 1.411511	-91.776230	 78.527470	-180.000000	 61.973400	 41.482270	-59.452960	-9.313485	 0.218227	-1.353410	-31.102610	-12.487940	-4.620816	-2.635965	 4.993658	 6.788941	-5.165319	 0.784187	 3.516649	-5.225038	 0.466231	 0.424329	-0.000002	-3.783157	-0.089647	 5.895195	 3.964529	-0.204231	 89.782050	 78.203870	-180.000000	-63.923470	 41.105240	 59.325780	 7.718185	 2.868208	 7.440091	 31.494800	-14.070910	 8.829537	 6.112037	 4.509576	-0.364401	 4.968462	 1.518543	-9.347576	 5.168945	 0.703820	 2.021906
 0.000245	 0.019754	 1.271268	-0.000203	 0.007956	 0.153661	-0.495932	-1.839665	 177.793400	 1.471120	-12.128080	-0.708338	-7.110293	 71.211480	 0.996655	-2.385833	 28.452760	 0.000004	 0.356589	-1.948096	-178.049700	-1.461138	-11.854050	 0.679143	 6.818973	 70.923370	-0.852158	 2.384658	 28.388730	 0.000004	-8.463393	 2.200320	 0.207019	-1.819929	 5.475021	-0.563909	 5.497349	-6.892464	 1.312948	-91.776160	 78.527450	 180.000000	 62.092250	 41.573100	-59.115060	-10.096030	 0.258563	-1.960109	-31.721500	-13.554110	-4.779690	-2.635965	 4.993658	 6.788941	-5.165319	 0.784187	 3.516649	-5.225038	 0.466231	 0.424329	-0.000002	-3.783157	-0.089647	 5.267185	 3.648934	-0.167911	 89.782110	 78.203900	 180.000000	-62.218780	 39.622750	 59.431770	 6.848052	 3.941146	 10.781620	 32.223380	-16.017350	 8.491946	 6.112037	 4.509576	-0.364401	 4.968462	 1.518543	-9.347576	 5.168945	 0.703820	 2.021906
 0.000191	 0.019783	 1.271357	 0.000668	 0.008885	 0.131479	-0.161577	-1.864661	 177.790500	 1.470924	-12.143690	-0.709277	-7.119376	 71.202900	 1.006953	-2.385833	 28.452760	 0.000004	 0.023036	-2.019016	-178.011100	-1.459748	-11.968430	 0.685889	 6.840900	 70.966540	-0.875492	 2.384658	 28.388730	 0.000004	-9.880127	 2.056742	 0.178406	-1.563160	 5.974508	-0.450515	 4.719847	-7.577991	 1.156563	-91.776210	 78.527450	-180.000000	 62.128480	 41.643360	-58.753490	-10.866290	 0.315128	-2.558991	-32.338320	-14.587460	-4.958153	-2.635965	 4.993658	 6.788941	-5.165319	 0.784187	 3.516649	-5.225038	 0.466231	 0.424329	-0.000002	-3.783157	-0.089647	 4.501652	 3.415666	-0.134303	 89.782070	 78.203890	-180.000000	-59.558200	 37.780650	 59.773880	 5.391800	 5.047754	 14.706180	 32.233600	-18.050870	 7.842500	 6.112037	 4.509576	-0.364401	 4.968462	 1.518543	-9.347576	 5.168945	 0.703820	 2.021906
 0.000110	 0.019825	 1.271428	 0.001101	 0.009316	 0.099179	 0.210776	-1.887094	 177.794100	 1.470822	-12.151730	-0.709762	-7.128367	 71.188650	 1.017284	-2.385833	 28.452760	 0.000004	-0.346199	-2.109622	-177.962000	-1.457879	-12.120170	 0.694849	 6.870476	 71.027080	-0.906845	 2.384658	 28.388730	 0.000004	-11.429140	 1.925273	 0.151305	-1.201175	 6.435169	-0.316757	 3.631119	-8.219584	 0.908585	-91.776210	 78.527470	-180.000000	 62.077970	 41.696560	-58.288250	-11.912690	 0.405750	-3.281025	-32.966360	-15.780650	-5.180058	-2.635965	 4.993658	 6.788941	-5.165319	 0.784187	 3.516649	-5.225038	 0.466231	 0.424329	-0.000002	-3.783157	-0.089647	 3.450827	 3.214966	-0.096884	 89.782100	 78.203900	 180.000000	-56.022320	 35.527530	 63.134710	 3.323391	 4.641692	 15.528590	 31.401190	-20.531000	 6.628818	 6.112037	 4.509576	-0.364401	 4.968462	 1.518543	-9.347576	 5.168945	 0.703820	 2.021906
-0.000024	 0.019868	 1.271341	 0.001960	 0.013899	 0.072646	 0.572804	-1.892690	 177.787900	 1.471268	-12.116460	-0.707638	-7.133494	 71.152000	 1.023876	-2.385833	 28.452760	 0.000004	-0.705693	-2.201190	-177.917700	-1.456077	-12.264670	 0.703390	 6.902624	 71.084000	-0.941095	 2.384658	 28.388730	 0.000004	-12.869830	 1.828480	 0.118904	-0.784355	 6.762139	-0.183314	 2.382766	-8.680737	 0.601129	-91.776050	 78.527430	 179.999900	 61.903900	 41.712400	-57.747200	-12.921530	 0.526572	-4.033959	-33.713630	-16.974780	-5.455290	-2.635965	 4.993658	 6.788941	-5.165319	 0.784187	 3.516649	-5.225038	 0.466231	 0.424329	-0.000002	-3.783157	-0.089647	 2.263934	 3.080747	-0.060901	 89.782130	 78.203870	 180.000000	-51.202280	 32.689110	 65.767410	 0.901436	 4.785725	 18.277640	 29.953420	-22.747350	 5.231994	 6.112037	 4.509576	-0.364401	 4.968462	 1.518543	-9.347576	 5.168945	 0.703820	 2.021906
-0.000160	 0.019901	 1.270960	 0.001570	 0.016490	 0.036883	 0.957298	-1.904008	 177.790600	 1.471522	-12.096270	-0.706424	-7.141415	 71.122280	 1.033355	-2.385833	 28.452760	 0.000004	-1.083995	-2.309812	-177.865000	-1.453787	-12.445190	 0.714074	 6.941855	 71.158360	-0.982708	 2.384658	 28.388730	 0.000004	-14.266720	 1.724501	 0.111521	-0.291609	 7.045034	-0.078167	 0.924013	-8.995734	 0.242660	-91.776160	 78.527450	 180.000000	 61.588540	 41.675150	-57.104290	-14.054230	 0.694984	-4.878525	-34.557130	-18.214690	-5.795041	-2.635965	 4.993658	 6.788941	-5.165319	 0.784187	 3.516649	-5.225038	 0.466231	 0.424329	-0.000002	-3.783157	-0.089647	 0.887715	 3.004601	-0.023296	 89.782040	 78.203870	-180.000000	-45.414570	 29.193870	 70.077420	-1.683308	 4.235050	 19.183740	 27.598830	-24.702260	 3.529541	 6.112037	 4.509576	-0.364401	 4.968462	 1.518543	-9.347576	 5.168945	 0.703820	 2.021906
-0.000253	 0.019874	 1.270431	-0.000527	 0.017784	 0.001353	 1.289667	-2.002985	 177.806400	 1.469361	-12.266430	-0.716670	-7.196182	 71.192140	 1.092046	-2.385833	 28.452760	 0.000004	-1.407669	-2.474091	-177.821000	-1.449887	-12.747070	 0.731974	 7.013935	 71.296570	-1.058924	 2.384658	 28.388730	 0.000004	-15.315750	 1.717357	 0.074850	 0.150646	 7.072470	 0.074077	-0.398382	-9.033961	-0.117797	-91.776180	 78.527490	 180.000000	 61.182660	 41.584990	-56.462390	-15.081500	 0.877664	-5.642766	-35.323540	-19.220920	-6.125102	-2.635965	 4.993658	 6.788941	-5.165319	 0.784187	 3.516649	-5.225038	 0.466231	 0.424329	-0.000002	-3.783157	-0.089647	-0.350666	 2.993246	 0.009148	 89.782170	 78.203870	 179.999900	-39.916820	 26.152710	 74.695560	-4.023373	 3.508505	 18.795060	 25.188340	-25.972770	 1.995730	 6.112037	 4.509576	-0.364401	 4.968462	 1.518543	-9.347576	 5.168945	 0.703820	 2.021906
